<?xml version="1.0" encoding="UTF-8" standalone="no"?>
<svg
   xmlns:dc="http://purl.org/dc/elements/1.1/"
   xmlns:cc="http://creativecommons.org/ns#"
   xmlns:rdf="http://www.w3.org/1999/02/22-rdf-syntax-ns#"
   xmlns:svg="http://www.w3.org/2000/svg"
   xmlns="http://www.w3.org/2000/svg"
   xmlns:xlink="http://www.w3.org/1999/xlink"
   viewBox="0 0 332 375"
   height="375"
   width="332"
   version="1.1"
   id="svg3336">
  <metadata
     id="metadata3342">
    <rdf:RDF>
      <cc:Work
         rdf:about="">
        <dc:format>image/svg+xml</dc:format>
        <dc:type
           rdf:resource="http://purl.org/dc/dcmitype/StillImage" />
        <dc:title></dc:title>
      </cc:Work>
    </rdf:RDF>
  </metadata>
  <defs
     id="defs3340" />
  <image
     xlink:href="logo_letter.png"
     width="332"
     height="375"
     preserveAspectRatio="none"
     id="image3344"
     x="0"
     y="0" />
  <path
     id="path3346"
     d="M 53,369.91536 C 39.911337,368.66483 18.877151,365.94323 12.36325,364.65739 L 6.5,363.5 6.1850863,349.5 c -0.1732026,-7.7 -0.015412,-18.20645 0.3506461,-23.34766 l 0.6655599,-9.34765 3.1493537,0.43562 c 1.732145,0.23959 9.899354,2.32472 18.149354,4.63361 17.745682,4.96642 31.640809,6.39391 48.821488,5.01559 23.993912,-1.92491 37.403542,-9.48308 44.727182,-25.2099 4.61712,-9.91485 6.04373,-20.89847 6.67452,-51.38781 l 0.5629,-27.20819 L 90.893045,141.33277 52.5,59.581934 51.624512,164.29097 50.749023,269 27.374512,269 4,269 4.007109,141.25 C 4.011019,70.9875 4.3010912,10.4625 4.6517138,6.75 L 5.2892096,0 166.98588,0 l 161.69667,0 0.6561,20.25 c 0.36085,11.1375 0.65728,71.6625 0.65872,134.5 L 330,269 l -25.5,0 -25.5,0 -0.14354,-44.25 c -0.079,-24.3375 -0.41645,-71.46623 -0.75,-104.73052 L 277.5,59.538967 l -36.37076,76.862863 -36.37077,76.86287 0.56709,33.61765 c 0.70673,41.89607 1.92802,49.42437 9.92722,61.19347 4.94988,7.28267 12.33789,12.22958 23.94144,16.03084 6.8365,2.23961 8.71893,2.38975 29.30578,2.33749 l 22,-0.0559 17.5,-5.0477 c 9.625,-2.77624 17.8375,-4.86205 18.25,-4.63513 0.4125,0.22692 0.75,10.91293 0.75,23.74671 l 0,23.33413 -6.25,1.1333 c -28.37189,5.14463 -65.97885,6.7649 -84.25,3.62985 -29.85456,-5.12258 -52.28624,-18.55108 -67.42833,-40.36533 l -2.30168,-3.31588 -3.24585,4.81982 c -4.38288,6.5082 -19.87796,21.01903 -26.94003,25.2288 C 116.30247,367.00693 83.73146,372.85154 53,369.91536 Z M 129,77.5 129,40 111.55902,40 c -10.18982,0 -17.690244,0.403308 -18.040519,0.970064 -0.329743,0.533536 1.952389,6.496036 5.071404,13.25 C 108.24951,75.137123 127.81577,115 128.42307,115 128.74038,115 129,98.125 129,77.5 Z m 91.49415,6.564458 C 239.44203,43.105608 240.18863,41.286362 238.34077,40.577272 237.51338,40.259773 229.67323,40 220.91821,40 L 205,40 l 0,37.7 c 0,23.49499 0.35362,37.34205 0.93852,36.75 0.51618,-0.5225 7.06621,-14.19599 14.55563,-30.385542 z"
     style="fill:#000000" />
</svg>
